<svg xmlns="http://www.w3.org/2000/svg" width="511.962" height="511.962" viewBox="0 0 1666 1666">
  <metadata><?xpacket begin="﻿" id="W5M0MpCehiHzreSzNTczkc9d"?>
<x:xmpmeta xmlns:x="adobe:ns:meta/" x:xmptk="Adobe XMP Core 5.6-c142 79.160924, 2017/07/13-01:06:39        ">
   <rdf:RDF xmlns:rdf="http://www.w3.org/1999/02/22-rdf-syntax-ns#">
      <rdf:Description rdf:about=""/>
   </rdf:RDF>
</x:xmpmeta>
                                                                                                    
                                                                                                    
                                                                                                    
                                                                                                    
                                                                                                    
                                                                                                    
                                                                                                    
                                                                                                    
                                                                                                    
                                                                                                    
                                                                                                    
                                                                                                    
                                                                                                    
                                                                                                    
                                                                                                    
                                                                                                    
                                                                                                    
                                                                                                    
                                                                                                    
                                                                                                    
                           
<?xpacket end="w"?></metadata>
<defs>
    <style>
      .cls-1 {
        fill: #cdcdcd;
      }

      .cls-1, .cls-2 {
        fill-rule: evenodd;
      }

      .cls-2 {
        fill: #fff;
      }
    </style>
  </defs>
  <path id="Fond_Gris" data-name="Fond Gris" class="cls-1" d="M-2,166.6L166.6,0H1499.4L1666,166.6l-2,1332.8L1499.4,1664l-1332.8,2L-2,1499.4V166.6Z"/>
  <path id="Tools" class="cls-2" d="M702,891l81,100L540,1253,409,1149ZM825,771l81,89,39-66,69-65,89-16,93,78,11,96,58-139-77-127L995,494l8-31-66-46L814,521l65,54,43-12,34,31,8,89-85,57ZM401,571l39,115,138,27,317,359-8,104,112,70-39-101,101-46,57,100,31-115-139-70L686,644,667,521,501,482l81,69-73,70Z"/>
</svg>
